<svg xmlns="http://www.w3.org/2000/svg" width="25" height="19" viewBox="0 0 25 19"><g><g><path fill="#b39f97" d="M3.593 9.724h16.78l.026.071c-.279.27-.558.542-.84.808-1.552 1.488-3.108 2.97-4.66 4.454l-.048.043.588.494a1689.81 1689.81 0 0 0 3.927-3.747c.728-.694 1.456-1.385 2.18-2.083.326-.314.326-.479-.005-.797C19.532 7.045 17.27 4.922 15.261 3l-.558.444c1.765 1.687 3.779 3.66 5.544 5.348.056.055.135.102.17.223H3.593"/><path fill="none" stroke="#b39f97" stroke-miterlimit="20" stroke-width=".3" d="M3.593 9.724h16.78l.026.071c-.279.27-.558.542-.84.808-1.552 1.488-3.108 2.97-4.66 4.454l-.048.043v0l.588.494a1689.81 1689.81 0 0 0 3.927-3.747c.728-.694 1.456-1.385 2.18-2.083.326-.314.326-.479-.005-.797C19.532 7.045 17.27 4.922 15.261 3v0l-.558.444v0c1.765 1.687 3.779 3.66 5.544 5.348.056.055.135.102.17.223H3.593"/></g></g></svg>