<svg xmlns="http://www.w3.org/2000/svg" width="20" height="15" viewBox="0 0 20 15"><g><g transform="rotate(-180 75.69 2508.295)"><path d="M1.593 7.724h16.78l.026.07c-.279.272-.558.542-.841.81-1.552 1.486-3.108 2.97-4.66 4.452l-.047.044.588.494a1689.81 1689.81 0 0 0 3.927-3.747c.728-.695 1.456-1.385 2.18-2.084.326-.314.326-.478-.005-.796C17.53 5.044 15.27 2.92 13.26.999l-.559.443c1.766 1.687 3.78 3.661 5.544 5.348.057.055.136.102.17.224H1.593"/><path fill="none" stroke="#000" stroke-miterlimit="20" stroke-width=".3" d="M1.593 7.724h16.78l.026.07c-.279.272-.558.542-.841.81-1.552 1.486-3.108 2.97-4.66 4.452l-.047.044v0l.588.494a1689.81 1689.81 0 0 0 3.927-3.747c.728-.695 1.456-1.385 2.18-2.084.326-.314.326-.478-.005-.796C17.53 5.044 15.27 2.92 13.26.999v0l-.559.443v0c1.766 1.687 3.78 3.661 5.544 5.348.057.055.136.102.17.224H1.593"/></g></g></svg>