<svg xmlns="http://www.w3.org/2000/svg" width="29" height="21" viewBox="0 0 29 21"><g><g><path fill="#fff" d="M.834 11.047H25.69l.039.105c-.413.401-.827.802-1.246 1.197-2.299 2.203-4.604 4.4-6.902 6.597l-.071.064.871.733c1.944-1.849 3.88-3.697 5.818-5.551 1.078-1.029 2.156-2.052 3.228-3.087.484-.465.484-.709-.007-1.18-2.976-2.848-6.327-5.992-9.303-8.84l-.827.657c2.615 2.499 5.598 5.423 8.213 7.922.084.081.2.151.252.331H.834"/><path fill="none" stroke="#fff" stroke-miterlimit="20" stroke-width=".3" d="M.834 11.047H25.69l.039.105c-.413.401-.827.802-1.246 1.197-2.299 2.203-4.604 4.4-6.902 6.597l-.071.064v0l.871.733c1.944-1.849 3.88-3.697 5.818-5.551 1.078-1.029 2.156-2.052 3.228-3.087.484-.465.484-.709-.007-1.18-2.976-2.848-6.327-5.992-9.303-8.84v0l-.827.657v0c2.615 2.499 5.598 5.423 8.213 7.922.084.081.2.151.252.331H.834"/></g></g></svg>